<?xml version="1.0" standalone="no"?>
<!DOCTYPE svg PUBLIC "-//W3C//DTD SVG 20010904//EN"
 "http://www.w3.org/TR/2001/REC-SVG-20010904/DTD/svg10.dtd">
<svg version="1.0" xmlns="http://www.w3.org/2000/svg"
 width="296.000000pt" height="296.000000pt" viewBox="0 0 296.000000 296.000000"
 preserveAspectRatio="xMidYMid meet">
<metadata>
Created by potrace 1.14, written by Peter Selinger 2001-2017
</metadata>
<g transform="translate(0.000000,296.000000) scale(0.100000,-0.100000)"
fill="#000000" stroke="none">
<path d="M555 2646 c-219 -49 -395 -190 -486 -392 -65 -144 -63 -101 -66
-1072 l-4 -882 48 0 c75 0 170 27 270 75 156 76 287 226 342 392 38 115 42
213 39 1068 l-3 820 -40 2 c-22 1 -67 -4 -100 -11z"/>
<path d="M762 1764 l3 -899 24 -70 c74 -223 228 -384 438 -459 84 -30 201 -45
212 -28 4 7 6 406 4 887 -3 969 -1 942 -69 1077 -70 139 -152 228 -272 295
-85 48 -184 80 -271 89 l-72 7 3 -899z"/>
<path d="M2275 2647 c-3 -7 -4 -411 -2 -898 3 -981 -1 -919 71 -1064 71 -143
176 -245 321 -314 85 -41 162 -62 235 -64 l45 -2 0 890 c0 841 -1 893 -19 950
-90 290 -301 470 -599 510 -35 5 -48 3 -52 -8z"/>
<path d="M2030 2634 c-218 -57 -398 -227 -478 -452 l-27 -77 0 -900 0 -900 45
3 c78 5 172 33 255 75 115 58 235 180 293 298 74 149 72 118 72 1097 l0 872
-52 -1 c-29 0 -78 -7 -108 -15z"/>
</g>
</svg>
